<svg width="30" height="30" viewBox="0 0 30 30" fill="none" xmlns="http://www.w3.org/2000/svg">
<path d="M24.7266 13.2461H18.2812V7.62112H16.1719C16.8248 6.74948 17.1756 5.68867 17.1711 4.59961C17.1711 2.98008 16.4048 1.45834 15.1712 0.628363L14.6478 0.276215L14.1245 0.628363C12.8906 1.45846 12.1245 2.98014 12.1245 4.59961C12.1201 5.68868 12.471 6.74947 13.1241 7.62106H10.7812V13.2461H5.27344C4.37243 13.2471 3.50862 13.6055 2.87151 14.2426C2.2344 14.8797 1.87602 15.7435 1.875 16.6445V27.1875C1.87556 27.6846 2.07328 28.1612 2.42479 28.5127C2.7763 28.8642 3.25289 29.0619 3.75 29.0625H26.25C26.7471 29.0619 27.2237 28.8642 27.5752 28.5127C27.9267 28.1612 28.1244 27.6846 28.125 27.1875V16.6446C28.124 15.7435 27.7656 14.8797 27.1285 14.2426C26.4914 13.6055 25.6276 13.2471 24.7266 13.2461ZM14.6478 2.66848C15.0574 3.17731 15.2961 3.86766 15.2961 4.59967C15.2961 5.33168 15.0574 6.02209 14.6478 6.53086C14.2383 6.02209 13.9995 5.33168 13.9995 4.59961C13.9995 3.86754 14.2383 3.17731 14.6478 2.66848ZM12.6562 9.49612H16.4062V13.2461H12.6562V9.49612ZM3.75 16.6446C3.75047 16.2407 3.91112 15.8534 4.19672 15.5678C4.48232 15.2822 4.86954 15.1216 5.27344 15.1211H24.7266C25.1305 15.1216 25.5177 15.2822 25.8033 15.5678C26.0889 15.8534 26.2495 16.2407 26.25 16.6446V18.4948L24.9844 19.0532C24.7368 19.1621 24.4694 19.2184 24.199 19.2184C23.9285 19.2184 23.6611 19.1621 23.4135 19.0532L21.2109 18.0813L19.0078 19.0532C18.7603 19.1621 18.4928 19.2183 18.2224 19.2183C17.9519 19.2183 17.6844 19.1621 17.4369 19.0532L15.2344 18.0813L13.0312 19.0531C12.7837 19.162 12.5162 19.2183 12.2458 19.2183C11.9754 19.2183 11.7079 19.162 11.4604 19.0531L9.25781 18.0813L7.0551 19.0531C6.80757 19.162 6.54009 19.2183 6.26965 19.2183C5.99921 19.2183 5.73173 19.162 5.4842 19.0531L3.75 18.2881V16.6446ZM26.25 27.1875H3.75V20.3375L4.72723 20.7686C5.21328 20.9825 5.7385 21.0929 6.26953 21.0929C6.80056 21.0929 7.32578 20.9825 7.81184 20.7686L9.25781 20.1306L10.7038 20.7686C11.1899 20.9825 11.7151 21.0929 12.2461 21.0929C12.7771 21.0929 13.3024 20.9825 13.7884 20.7686L15.2344 20.1306L16.6803 20.7686C17.1663 20.9825 17.6915 21.0929 18.2225 21.0929C18.7535 21.0929 19.2788 20.9825 19.7648 20.7686L21.2109 20.1306L22.6569 20.7687C23.1429 20.9825 23.6681 21.093 24.1991 21.093C24.7301 21.093 25.2553 20.9825 25.7413 20.7687L26.2507 20.544L26.2512 27.1875H26.25Z" fill="white"/>
</svg>
