<svg width="100" height="100" viewBox="0 0 100 100" fill="none" xmlns="http://www.w3.org/2000/svg">
<path d="M29.1668 79.1667C33.7692 79.1667 37.5002 75.4357 37.5002 70.8333C37.5002 66.231 33.7692 62.5 29.1668 62.5C24.5645 62.5 20.8335 66.231 20.8335 70.8333C20.8335 75.4357 24.5645 79.1667 29.1668 79.1667Z" stroke="white" stroke-width="2" stroke-linecap="round" stroke-linejoin="round"/>
<path d="M70.8333 79.1667C75.4357 79.1667 79.1667 75.4357 79.1667 70.8333C79.1667 66.231 75.4357 62.5 70.8333 62.5C66.231 62.5 62.5 66.231 62.5 70.8333C62.5 75.4357 66.231 79.1667 70.8333 79.1667Z" stroke="white" stroke-width="2" stroke-linecap="round" stroke-linejoin="round"/>
<path d="M12.5002 37.4999H29.1668M20.8335 70.8333H12.5002V54.1666L20.8335 70.8333ZM8.3335 20.8333H54.1668V70.8333L8.3335 20.8333ZM37.5002 70.8333H62.5002H37.5002ZM79.1668 70.8333H87.5002V45.8333H54.1668L79.1668 70.8333ZM54.1668 24.9999H75.0002L87.5002 45.8333L54.1668 24.9999Z" stroke="white" stroke-width="2" stroke-linecap="round" stroke-linejoin="round"/>
</svg>
