<svg width="100" height="100" viewBox="0 0 100 100" fill="none" xmlns="http://www.w3.org/2000/svg">
<path d="M70.8332 79.1667C66.2308 79.1667 62.4998 75.4357 62.4998 70.8333C62.4998 66.231 66.2308 62.5 70.8332 62.5C75.4355 62.5 79.1665 66.231 79.1665 70.8333C79.1665 75.4357 75.4355 79.1667 70.8332 79.1667Z" stroke="white" stroke-width="2" stroke-linecap="round" stroke-linejoin="round"/>
<path d="M29.1667 79.1667C24.5643 79.1667 20.8333 75.4357 20.8333 70.8333C20.8333 66.231 24.5643 62.5 29.1667 62.5C33.769 62.5 37.5 66.231 37.5 70.8333C37.5 75.4357 33.769 79.1667 29.1667 79.1667Z" stroke="white" stroke-width="2" stroke-linecap="round" stroke-linejoin="round"/>
<path d="M87.4998 37.4999H70.8332M79.1665 70.8333H87.4998V54.1666L79.1665 70.8333ZM91.6665 20.8333H45.8332V70.8333L91.6665 20.8333ZM62.4998 70.8333H37.4998H62.4998ZM20.8332 70.8333H12.4998V45.8333H45.8332L20.8332 70.8333ZM45.8332 24.9999H24.9998L12.4998 45.8333L45.8332 24.9999Z" stroke="white" stroke-width="2" stroke-linecap="round" stroke-linejoin="round"/>
</svg>
