<svg width="30" height="30" viewBox="0 0 30 30" fill="none" xmlns="http://www.w3.org/2000/svg">
<path d="M3.75 15H15V16.875H3.75V15ZM1.875 10.3125H11.25V12.1875H1.875V10.3125Z" fill="white"/>
<path d="M28.049 15.5681L25.2365 9.00564C25.1644 8.83695 25.0442 8.69319 24.8911 8.59218C24.7379 8.4912 24.5585 8.43741 24.375 8.4375H21.5625V6.5625C21.5625 6.31386 21.4637 6.07539 21.2879 5.89959C21.1121 5.72376 20.8736 5.625 20.625 5.625H5.62497V7.5H19.6875V19.2713C19.2603 19.5193 18.8864 19.8495 18.5875 20.2427C18.2885 20.636 18.0704 21.0845 17.9456 21.5625H12.0544C11.8262 20.6788 11.2835 19.9086 10.5281 19.3963C9.77268 18.884 8.85636 18.6649 7.95093 18.7799C7.04547 18.8949 6.21306 19.3362 5.60967 20.021C5.00631 20.7059 4.67343 21.5873 4.67343 22.5C4.67343 23.4127 5.00631 24.2941 5.60967 24.979C6.21306 25.6638 7.04547 26.1051 7.95093 26.2201C8.85636 26.3351 9.77268 26.116 10.5281 25.6037C11.2835 25.0914 11.8262 24.3212 12.0544 23.4375H17.9456C18.1496 24.2421 18.616 24.9557 19.271 25.4655C19.9261 25.9752 20.7324 26.252 21.5625 26.252C22.3925 26.252 23.1989 25.9752 23.8539 25.4655C24.509 24.9557 24.9754 24.2421 25.1794 23.4375H27.1875C27.4361 23.4375 27.6746 23.3387 27.8504 23.1629C28.0262 22.9871 28.125 22.7486 28.125 22.5V15.9375C28.125 15.8105 28.0992 15.6848 28.049 15.5681ZM8.43747 24.375C8.06664 24.375 7.70412 24.265 7.39578 24.059C7.08744 23.853 6.84711 23.5601 6.70521 23.2175C6.56331 22.8749 6.52617 22.4979 6.5985 22.1342C6.67086 21.7705 6.84945 21.4364 7.11165 21.1742C7.37388 20.912 7.70799 20.7334 8.07168 20.661C8.4354 20.5887 8.81241 20.6258 9.15501 20.7677C9.49764 20.9096 9.79047 21.15 9.99648 21.4583C10.2025 21.7667 10.3125 22.1292 10.3125 22.5C10.312 22.9971 10.1143 23.4737 9.76275 23.8253C9.41124 24.1768 8.9346 24.3745 8.43747 24.375ZM21.5625 10.3125H23.7562L25.7662 15H21.5625V10.3125ZM21.5625 24.375C21.1916 24.375 20.8291 24.265 20.5208 24.059C20.2124 23.853 19.9721 23.5601 19.8302 23.2175C19.6883 22.8749 19.6512 22.4979 19.7235 22.1342C19.7959 21.7705 19.9744 21.4364 20.2367 21.1742C20.4989 20.912 20.833 20.7334 21.1967 20.661C21.5604 20.5887 21.9374 20.6258 22.28 20.7677C22.6226 20.9096 22.9155 21.15 23.1215 21.4583C23.3275 21.7667 23.4375 22.1292 23.4375 22.5C23.437 22.9971 23.2393 23.4737 22.8878 23.8253C22.5362 24.1768 22.0596 24.3745 21.5625 24.375ZM26.25 21.5625H25.1794C24.9728 20.7595 24.5057 20.0477 23.8511 19.5387C23.1966 19.0297 22.3916 18.7523 21.5625 18.75V16.875H26.25V21.5625Z" fill="white"/>
</svg>
