<svg width="84" height="84" viewBox="0 0 84 84" fill="none" xmlns="http://www.w3.org/2000/svg">
<circle cx="42" cy="42" r="42" fill="url(#paint0_linear_902_298)"/>
<path d="M42.2668 40.117C42.1002 40.1003 41.9002 40.1003 41.7168 40.117C37.7502 39.9837 34.6002 36.7337 34.6002 32.7337C34.5835 28.6503 37.9002 25.3337 41.9835 25.3337C46.0668 25.3337 49.3835 28.6503 49.3835 32.7337C49.3835 36.7337 46.2168 39.9837 42.2668 40.117Z" stroke="#A72335" stroke-width="2.5" stroke-linecap="round" stroke-linejoin="round"/>
<path d="M41.9829 58.3498C38.9496 58.3498 35.9329 57.5832 33.6329 56.0498C29.5996 53.3498 29.5996 48.9498 33.6329 46.2665C38.2162 43.1998 45.7329 43.1998 50.3162 46.2665" stroke="#A72335" stroke-width="2.5" stroke-linecap="round" stroke-linejoin="round"/>
<line x1="46.4142" y1="51" x2="52.0711" y2="56.6569" stroke="#A72335" stroke-width="2" stroke-linecap="round"/>
<line x1="52" y1="51.4142" x2="46.3431" y2="57.0711" stroke="#A72335" stroke-width="2" stroke-linecap="round"/>
<defs>
<linearGradient id="paint0_linear_902_298" x1="74.55" y1="2.14197e-06" x2="42" y2="84" gradientUnits="userSpaceOnUse">
<stop stop-color="#FFE0E4"/>
<stop offset="1" stop-color="#FFD9DE"/>
</linearGradient>
</defs>
</svg>
