<svg width="32" height="32" viewBox="0 0 32 32" fill="none" xmlns="http://www.w3.org/2000/svg">
<path d="M14.5858 16L11.7578 13.172C11.5756 12.9834 11.4748 12.7308 11.4771 12.4686C11.4794 12.2064 11.5845 11.9556 11.7699 11.7702C11.9554 11.5848 12.2062 11.4796 12.4684 11.4773C12.7306 11.475 12.9832 11.5758 13.1718 11.758L15.9998 14.586L18.8278 11.758C18.92 11.6625 19.0304 11.5863 19.1524 11.5339C19.2744 11.4815 19.4056 11.4539 19.5384 11.4527C19.6711 11.4516 19.8028 11.4769 19.9257 11.5272C20.0486 11.5774 20.1603 11.6517 20.2542 11.7456C20.348 11.8395 20.4223 11.9511 20.4726 12.074C20.5229 12.1969 20.5482 12.3286 20.547 12.4614C20.5459 12.5942 20.5183 12.7254 20.4659 12.8474C20.4135 12.9694 20.3373 13.0797 20.2418 13.172L17.4138 16L20.2418 18.828C20.3373 18.9202 20.4135 19.0306 20.4659 19.1526C20.5183 19.2746 20.5459 19.4058 20.547 19.5386C20.5482 19.6714 20.5229 19.803 20.4726 19.9259C20.4223 20.0488 20.348 20.1605 20.2542 20.2544C20.1603 20.3483 20.0486 20.4225 19.9257 20.4728C19.8028 20.5231 19.6711 20.5484 19.5384 20.5472C19.4056 20.5461 19.2744 20.5185 19.1524 20.4661C19.0304 20.4137 18.92 20.3375 18.8278 20.242L15.9998 17.414L13.1718 20.242C12.9832 20.4241 12.7306 20.5249 12.4684 20.5227C12.2062 20.5204 11.9554 20.4152 11.7699 20.2298C11.5845 20.0444 11.4794 19.7936 11.4771 19.5314C11.4748 19.2692 11.5756 19.0166 11.7578 18.828L14.5858 16Z" fill="#B5B7C0"/>
<path d="M16 28C17.5759 28 19.1363 27.6896 20.5922 27.0866C22.0481 26.4835 23.371 25.5996 24.4853 24.4853C25.5996 23.371 26.4835 22.0481 27.0866 20.5922C27.6896 19.1363 28 17.5759 28 16C28 14.4241 27.6896 12.8637 27.0866 11.4078C26.4835 9.95189 25.5996 8.62902 24.4853 7.51472C23.371 6.40042 22.0481 5.5165 20.5922 4.91345C19.1363 4.31039 17.5759 4 16 4C12.8174 4 9.76515 5.26428 7.51472 7.51472C5.26428 9.76515 4 12.8174 4 16C4 19.1826 5.26428 22.2348 7.51472 24.4853C9.76515 26.7357 12.8174 28 16 28ZM16 30C12.287 30 8.72601 28.525 6.1005 25.8995C3.475 23.274 2 19.713 2 16C2 12.287 3.475 8.72601 6.1005 6.1005C8.72601 3.475 12.287 2 16 2C19.713 2 23.274 3.475 25.8995 6.1005C28.525 8.72601 30 12.287 30 16C30 19.713 28.525 23.274 25.8995 25.8995C23.274 28.525 19.713 30 16 30Z" fill="#B5B7C0"/>
</svg>
