<svg width="35" height="35" viewBox="0 0 35 35" fill="none" xmlns="http://www.w3.org/2000/svg">
<path d="M17.5001 2.91667C9.45008 2.91667 2.91675 9.45 2.91675 17.5C2.91675 25.55 9.45008 32.0833 17.5001 32.0833C25.5501 32.0833 32.0834 25.55 32.0834 17.5C32.0834 9.45 25.5501 2.91667 17.5001 2.91667ZM24.2667 12.8333C24.048 15.1375 23.1001 20.7375 22.6188 23.3188C22.4147 24.4125 22.0063 24.7771 21.6272 24.8208C20.7813 24.8938 20.1397 24.2667 19.323 23.7271C18.0397 22.8813 17.3105 22.3563 16.0709 21.5396C14.6272 20.5917 15.5605 20.0667 16.3917 19.2208C16.6105 19.0021 20.3438 15.6042 20.4167 15.2979C20.4269 15.2515 20.4255 15.2034 20.4128 15.1576C20.4001 15.1119 20.3764 15.0699 20.3438 15.0354C20.2563 14.9625 20.1397 14.9917 20.0376 15.0063C19.9063 15.0354 17.8647 16.3917 13.8834 19.075C13.3001 19.4688 12.7751 19.6729 12.3084 19.6583C11.7834 19.6438 10.7917 19.3667 10.048 19.1188C9.12925 18.8271 8.41466 18.6667 8.473 18.1563C8.50216 17.8938 8.86675 17.6313 9.55216 17.3542C13.8105 15.5021 16.6397 14.2771 18.0542 13.6938C22.1084 12.0021 22.9397 11.7104 23.4938 11.7104C23.6105 11.7104 23.8876 11.7396 24.0626 11.8854C24.2084 12.0021 24.2522 12.1625 24.2667 12.2792C24.2522 12.3667 24.2813 12.6292 24.2667 12.8333Z" fill="#AE3323"/>
</svg>
