<svg width="45" height="45" viewBox="0 0 45 45" fill="none" xmlns="http://www.w3.org/2000/svg">
<circle cx="22.5" cy="22.5" r="22.5" fill="#623A1E"/>
<path d="M23 23.5C25.4853 23.5 27.5 21.4853 27.5 19C27.5 16.5147 25.4853 14.5 23 14.5C20.5147 14.5 18.5 16.5147 18.5 19C18.5 21.4853 20.5147 23.5 23 23.5Z" stroke="white" stroke-width="2" stroke-linecap="round" stroke-linejoin="round"/>
<path d="M23 7C19.8174 7 16.7652 8.26428 14.5147 10.5147C12.2643 12.7652 11 15.8174 11 19C11 21.838 11.603 23.695 13.25 25.75L23 37L32.75 25.75C34.397 23.695 35 21.838 35 19C35 15.8174 33.7357 12.7652 31.4853 10.5147C29.2348 8.26428 26.1826 7 23 7V7Z" stroke="white" stroke-width="2" stroke-linecap="round" stroke-linejoin="round"/>
</svg>
