<svg width="261" height="70" viewBox="0 0 261 70" fill="none" xmlns="http://www.w3.org/2000/svg">
<g clip-path="url(#clip0_21_112)">
<path d="M259.05 33.1183H72.1327C71.0935 33.1183 70.251 33.9608 70.251 35C70.251 36.0393 71.0935 36.8817 72.1327 36.8817H259.05C260.09 36.8817 260.932 36.0393 260.932 35C260.932 33.9608 260.09 33.1183 259.05 33.1183Z" fill="url(#paint0_linear_21_112)"/>
<path d="M111.097 48.3728L99.4049 21.7276H100.76L99.3045 35.5771C99.0704 37.9187 99.0202 39.6918 99.154 40.8961C99.2877 42.1004 99.6056 42.9366 100.107 43.405C100.643 43.8398 101.362 44.0907 102.265 44.1577C102.432 44.7265 102.533 45.3452 102.566 46.0144C102.633 46.6499 102.667 47.3358 102.667 48.0717C102.165 48.0047 101.379 47.9545 100.308 47.9212C99.2711 47.9212 98.2174 47.9212 97.1468 47.9212C96.4443 47.9212 95.6582 47.9212 94.7884 47.9212C93.9521 47.9545 93.1658 47.9714 92.43 47.9714C91.6941 48.0047 91.1587 48.0383 90.8242 48.0717C90.8242 47.3358 90.8576 46.6499 90.9246 46.0144C90.9916 45.3452 91.0919 44.7265 91.2257 44.1577C92.0955 44.0907 92.798 43.8233 93.3332 43.3549C93.902 42.8531 94.3536 42 94.688 40.7957C95.0561 39.5914 95.3403 37.9187 95.5411 35.7778L96.645 23.5341C96.8124 21.9283 96.8289 20.7073 96.6952 19.871C96.5615 19.0347 96.2436 18.4827 95.7418 18.2151C95.24 17.914 94.5041 17.7635 93.5339 17.7635C93.3665 17.1613 93.2496 16.5592 93.1826 15.957C93.1493 15.3549 93.1325 14.6524 93.1325 13.8495C93.6343 13.8829 94.3368 13.9164 95.24 13.9498C96.1432 13.9498 97.0464 13.9666 97.9497 14C98.8863 14 99.6224 14 100.158 14C100.693 14 101.429 14 102.365 14C103.336 13.9666 104.255 13.9498 105.125 13.9498C106.029 13.9164 106.647 13.8829 106.982 13.8495L117.068 37.8853H115.211L123.892 13.8495C124.494 13.8829 125.264 13.9164 126.201 13.9498C127.137 13.9498 128.057 13.9666 128.96 14C129.864 14 130.583 14 131.118 14C131.653 14 132.356 14 133.226 14C134.095 13.9666 134.965 13.9498 135.835 13.9498C136.705 13.9164 137.391 13.8829 137.892 13.8495C137.892 14.552 137.859 15.2545 137.792 15.957C137.759 16.6595 137.658 17.2617 137.491 17.7635C135.952 17.7635 134.965 18.1816 134.53 19.0179C134.129 19.8208 134.045 21.3429 134.279 23.5843L135.684 37.3334C135.885 39.3072 136.103 40.7624 136.337 41.6989C136.604 42.6355 136.972 43.2545 137.441 43.5556C137.942 43.8233 138.645 44.0072 139.548 44.1076C139.682 44.6763 139.766 45.295 139.799 45.9642C139.866 46.5997 139.899 47.3022 139.899 48.0717C139.565 48.0383 138.996 48.0047 138.193 47.9714C137.391 47.9714 136.47 47.9545 135.434 47.9212C134.43 47.9212 133.443 47.9212 132.473 47.9212C131.503 47.9212 130.717 47.9212 130.115 47.9212C129.312 47.9212 128.375 47.9212 127.304 47.9212C126.268 47.9545 125.281 47.9714 124.344 47.9714C123.441 48.0047 122.788 48.0383 122.387 48.0717C122.387 47.2355 122.42 46.533 122.487 45.9642C122.588 45.362 122.705 44.7599 122.839 44.1577C123.875 44.024 124.628 43.8065 125.097 43.5054C125.565 43.2043 125.832 42.6355 125.899 41.7993C125.966 40.9295 125.899 39.6248 125.699 37.8853L123.993 21.8782H125.097L114.86 47.9714C114.425 48.1051 113.84 48.2054 113.104 48.2724C112.368 48.3394 111.699 48.3728 111.097 48.3728Z" fill="white"/>
<path d="M211.455 48.3728L199.763 21.7276H201.118L199.663 35.5771C199.429 37.9187 199.379 39.6918 199.512 40.8961C199.646 42.1004 199.964 42.9366 200.466 43.405C201.001 43.8398 201.72 44.0907 202.623 44.1577C202.791 44.7265 202.891 45.3452 202.925 46.0144C202.992 46.6499 203.025 47.3358 203.025 48.0717C202.523 48.0047 201.737 47.9545 200.666 47.9212C199.63 47.9212 198.576 47.9212 197.505 47.9212C196.803 47.9212 196.017 47.9212 195.147 47.9212C194.311 47.9545 193.524 47.9714 192.788 47.9714C192.052 48.0047 191.517 48.0383 191.183 48.0717C191.183 47.3358 191.216 46.6499 191.283 46.0144C191.35 45.3452 191.45 44.7265 191.584 44.1577C192.454 44.0907 193.156 43.8233 193.692 43.3549C194.26 42.8531 194.712 42 195.046 40.7957C195.414 39.5914 195.699 37.9187 195.899 35.7778L197.003 23.5341C197.171 21.9283 197.187 20.7073 197.054 19.871C196.92 19.0347 196.602 18.4827 196.1 18.2151C195.598 17.914 194.863 17.7635 193.892 17.7635C193.725 17.1613 193.608 16.5592 193.541 15.957C193.508 15.3549 193.491 14.6524 193.491 13.8495C193.993 13.8829 194.695 13.9164 195.598 13.9498C196.502 13.9498 197.405 13.9666 198.308 14C199.245 14 199.981 14 200.516 14C201.051 14 201.787 14 202.724 14C203.694 13.9666 204.614 13.9498 205.484 13.9498C206.387 13.9164 207.006 13.8829 207.34 13.8495L217.426 37.8853H215.57L224.251 13.8495C224.853 13.8829 225.622 13.9164 226.559 13.9498C227.496 13.9498 228.416 13.9666 229.319 14C230.222 14 230.941 14 231.477 14C232.012 14 232.714 14 233.584 14C234.454 13.9666 235.324 13.9498 236.193 13.9498C237.063 13.9164 237.749 13.8829 238.251 13.8495C238.251 14.552 238.217 15.2545 238.15 15.957C238.117 16.6595 238.017 17.2617 237.849 17.7635C236.311 17.7635 235.324 18.1816 234.889 19.0179C234.487 19.8208 234.404 21.3429 234.638 23.5843L236.043 37.3334C236.244 39.3072 236.461 40.7624 236.695 41.6989C236.963 42.6355 237.331 43.2545 237.799 43.5556C238.301 43.8233 239.003 44.0072 239.907 44.1076C240.04 44.6763 240.124 45.295 240.158 45.9642C240.225 46.5997 240.258 47.3022 240.258 48.0717C239.923 48.0383 239.355 48.0047 238.552 47.9714C237.749 47.9714 236.829 47.9545 235.792 47.9212C234.788 47.9212 233.802 47.9212 232.831 47.9212C231.861 47.9212 231.075 47.9212 230.473 47.9212C229.67 47.9212 228.733 47.9212 227.663 47.9212C226.626 47.9545 225.639 47.9714 224.702 47.9714C223.799 48.0047 223.147 48.0383 222.745 48.0717C222.745 47.2355 222.779 46.533 222.846 45.9642C222.946 45.362 223.063 44.7599 223.197 44.1577C224.234 44.024 224.987 43.8065 225.455 43.5054C225.923 43.2043 226.191 42.6355 226.258 41.7993C226.325 40.9295 226.258 39.6248 226.057 37.8853L224.351 21.8782H225.455L215.218 47.9714C214.784 48.1051 214.198 48.2054 213.462 48.2724C212.726 48.3394 212.057 48.3728 211.455 48.3728Z" fill="white"/>
<path d="M169.907 21.6273L181.599 48.2724H180.244L181.699 34.423C181.933 32.0813 181.983 30.3083 181.85 29.104C181.716 27.8997 181.398 27.0634 180.896 26.595C180.361 26.1602 179.642 25.9093 178.738 25.8423C178.571 25.2735 178.471 24.6547 178.437 23.9857C178.37 23.3501 178.337 22.6643 178.337 21.9283C178.839 21.9952 179.625 22.0454 180.695 22.0789C181.732 22.0789 182.786 22.0789 183.857 22.0789C184.559 22.0789 185.345 22.0789 186.215 22.0789C187.051 22.0454 187.838 22.0287 188.574 22.0287C189.309 21.9952 189.845 21.9618 190.179 21.9283C190.179 22.6643 190.146 23.3501 190.079 23.9857C190.012 24.6547 189.912 25.2735 189.778 25.8423C188.908 25.9093 188.205 26.1768 187.67 26.6452C187.102 27.147 186.65 28 186.315 29.2043C185.947 30.4086 185.663 32.0813 185.462 34.2222L184.358 46.466C184.191 48.0717 184.175 49.2928 184.308 50.1291C184.442 50.9653 184.76 51.5173 185.262 51.785C185.764 52.086 186.499 52.2366 187.47 52.2366C187.637 52.8387 187.754 53.4409 187.821 54.043C187.854 54.6452 187.871 55.3477 187.871 56.1506C187.369 56.1172 186.667 56.0836 185.764 56.0502C184.86 56.0502 183.957 56.0334 183.054 56C182.117 56 181.381 56 180.846 56C180.311 56 179.575 56 178.638 56C177.668 56.0334 176.748 56.0502 175.878 56.0502C174.975 56.0836 174.356 56.1172 174.022 56.1506L163.936 32.1147H165.792L157.111 56.1506C156.509 56.1172 155.74 56.0836 154.803 56.0502C153.866 56.0502 152.946 56.0334 152.043 56C151.14 56 150.421 56 149.885 56C149.35 56 148.648 56 147.778 56C146.908 56.0334 146.038 56.0502 145.169 56.0502C144.299 56.0836 143.613 56.1172 143.111 56.1506C143.111 55.4481 143.145 54.7455 143.212 54.043C143.245 53.3405 143.345 52.7384 143.513 52.2366C145.051 52.2366 146.038 51.8183 146.473 50.9821C146.875 50.1792 146.958 48.657 146.724 46.4158L145.319 32.6667C145.118 30.6929 144.901 29.2377 144.667 28.3011C144.399 27.3645 144.031 26.7455 143.563 26.4445C143.061 26.1768 142.358 25.9928 141.455 25.8925C141.322 25.3237 141.238 24.7049 141.204 24.0359C141.137 23.4003 141.104 22.6978 141.104 21.9283C141.438 21.9618 142.007 21.9952 142.81 22.0287C143.613 22.0287 144.533 22.0454 145.57 22.0789C146.574 22.0789 147.56 22.0789 148.531 22.0789C149.501 22.0789 150.287 22.0789 150.889 22.0789C151.692 22.0789 152.628 22.0789 153.699 22.0789C154.736 22.0454 155.723 22.0287 156.66 22.0287C157.563 21.9952 158.215 21.9618 158.617 21.9283C158.617 22.7646 158.583 23.4672 158.516 24.0359C158.416 24.638 158.299 25.2402 158.165 25.8423C157.128 25.976 156.375 26.1936 155.907 26.4946C155.438 26.7957 155.171 27.3645 155.104 28.2007C155.037 29.0706 155.104 30.3753 155.305 32.1147L157.011 48.1219H155.907L166.143 22.0287C166.578 21.8949 167.164 21.7945 167.9 21.7276C168.636 21.6607 169.305 21.6273 169.907 21.6273Z" fill="white"/>
<path d="M73.2617 26.0932H5.01792C2.2466 26.0932 0 28.3398 0 31.1111V38.8889C0 41.6602 2.2466 43.9068 5.01792 43.9068H73.2617C76.033 43.9068 78.2796 41.6602 78.2796 38.8889V31.1111C78.2796 28.3398 76.033 26.0932 73.2617 26.0932Z" fill="white"/>
<path d="M9.91053 36.8817C10.9498 36.8817 11.7922 36.0393 11.7922 35C11.7922 33.9608 10.9498 33.1183 9.91053 33.1183C8.87128 33.1183 8.02881 33.9608 8.02881 35C8.02881 36.0393 8.87128 36.8817 9.91053 36.8817Z" fill="black"/>
</g>
<defs>
<linearGradient id="paint0_linear_21_112" x1="172.742" y1="-8.15417" x2="224.301" y2="81.9176" gradientUnits="userSpaceOnUse">
<stop stop-color="white"/>
<stop offset="0.886059" stop-color="white"/>
</linearGradient>
<clipPath id="clip0_21_112">
<rect width="260.932" height="70" fill="white"/>
</clipPath>
</defs>
</svg>
