<svg width="35" height="35" viewBox="0 0 35 35" fill="none" xmlns="http://www.w3.org/2000/svg">
<path d="M5.90625 30.625C5.46875 30.625 5.10417 30.4792 4.8125 30.1875C4.52083 29.8958 4.375 29.5313 4.375 29.0938V23.1875C4.375 22.8472 4.48437 22.5492 4.70312 22.2935C4.92187 22.0388 5.20139 21.875 5.54167 21.8021L10.5729 20.7812C10.9132 20.7326 11.2598 20.7628 11.6127 20.8717C11.9647 20.9815 12.25 21.1458 12.4688 21.3646L15.8958 24.7917C17.7431 23.6736 19.4386 22.349 20.9825 20.8177C22.5254 19.2865 23.8073 17.6458 24.8281 15.8958L21.2917 12.3229C21.0729 12.1042 20.9329 11.8548 20.8717 11.5748C20.8114 11.2958 20.8056 10.9861 20.8542 10.6458L21.8021 5.54167C21.8507 5.20139 22.0087 4.92187 22.276 4.70312C22.5434 4.48437 22.8472 4.375 23.1875 4.375H29.0938C29.5313 4.375 29.8958 4.52083 30.1875 4.8125C30.4792 5.10417 30.625 5.46875 30.625 5.90625C30.625 9.04167 29.926 12.0978 28.5279 15.0748C27.1308 18.0527 25.2836 20.6899 22.9862 22.9862C20.6899 25.2836 18.0532 27.1308 15.0763 28.5279C12.0983 29.926 9.04167 30.625 5.90625 30.625ZM26.2135 13.125C26.6267 12.1771 26.9427 11.217 27.1615 10.2448C27.3802 9.27257 27.5503 8.28819 27.6719 7.29167H24.4271L23.8073 10.7188L26.2135 13.125ZM13.1615 26.1771L10.7188 23.7344L7.29167 24.4271V27.6354C8.28819 27.5625 9.27889 27.4045 10.2638 27.1615C11.2476 26.9184 12.2135 26.5903 13.1615 26.1771Z" fill="#CA3622"/>
</svg>
