<svg width="35" height="35" viewBox="0 0 35 35" fill="none" xmlns="http://www.w3.org/2000/svg">
<path d="M17.4999 17.5C18.302 17.5 18.9889 17.2142 19.5605 16.6425C20.1312 16.0718 20.4166 15.3854 20.4166 14.5833C20.4166 13.7812 20.1312 13.0944 19.5605 12.5227C18.9889 11.952 18.302 11.6667 17.4999 11.6667C16.6978 11.6667 16.0114 11.952 15.4408 12.5227C14.8691 13.0944 14.5833 13.7812 14.5833 14.5833C14.5833 15.3854 14.8691 16.0718 15.4408 16.6425C16.0114 17.2142 16.6978 17.5 17.4999 17.5ZM17.4999 28.2187C20.4652 25.4965 22.6648 23.0232 24.0989 20.7987C25.5329 18.5753 26.2499 16.6007 26.2499 14.875C26.2499 12.2257 25.4051 10.0562 23.7153 8.36645C22.0266 6.6777 19.9548 5.83332 17.4999 5.83332C15.0451 5.83332 12.9728 6.6777 11.283 8.36645C9.59429 10.0562 8.74992 12.2257 8.74992 14.875C8.74992 16.6007 9.46693 18.5753 10.901 20.7987C12.335 23.0232 14.5346 25.4965 17.4999 28.2187ZM17.4999 31.5364C17.3055 31.5364 17.111 31.5 16.9166 31.4271C16.7221 31.3542 16.552 31.2569 16.4062 31.1354C12.8576 28 10.2083 25.0896 8.45825 22.4044C6.70825 19.7181 5.83325 17.2083 5.83325 14.875C5.83325 11.2292 7.00624 8.32464 9.35221 6.16145C11.6972 3.99825 14.4131 2.91666 17.4999 2.91666C20.5867 2.91666 23.3026 3.99825 25.6476 6.16145C27.9936 8.32464 29.1666 11.2292 29.1666 14.875C29.1666 17.2083 28.2916 19.7181 26.5416 22.4044C24.7916 25.0896 22.1423 28 18.5937 31.1354C18.4478 31.2569 18.2777 31.3542 18.0833 31.4271C17.8888 31.5 17.6944 31.5364 17.4999 31.5364Z" fill="#AE3323"/>
</svg>
