<svg width="100" height="100" viewBox="0 0 100 100" fill="none" xmlns="http://www.w3.org/2000/svg">
<path d="M59.375 65.625H40.625C38.1386 65.625 35.754 66.6127 33.9959 68.3709C32.2377 70.129 31.25 72.5136 31.25 75V81.25H37.5V75C37.5 74.1712 37.8292 73.3763 38.4153 72.7903C39.0013 72.2042 39.7962 71.875 40.625 71.875H59.375C60.2038 71.875 60.9987 72.2042 61.5847 72.7903C62.1708 73.3763 62.5 74.1712 62.5 75V81.25H68.75V75C68.75 72.5136 67.7623 70.129 66.0041 68.3709C64.246 66.6127 61.8614 65.625 59.375 65.625ZM50 62.5C52.4723 62.5 54.889 61.7669 56.9446 60.3934C59.0002 59.0199 60.6024 57.0676 61.5485 54.7835C62.4946 52.4995 62.7421 49.9861 62.2598 47.5614C61.7775 45.1366 60.587 42.9093 58.8388 41.1612C57.0907 39.413 54.8634 38.2225 52.4386 37.7402C50.0139 37.2579 47.5005 37.5054 45.2165 38.4515C42.9324 39.3976 40.9801 40.9998 39.6066 43.0554C38.2331 45.111 37.5 47.5277 37.5 50C37.5 53.3152 38.817 56.4946 41.1612 58.8388C43.5054 61.183 46.6848 62.5 50 62.5ZM50 43.75C51.2361 43.75 52.4445 44.1166 53.4723 44.8033C54.5001 45.4901 55.3012 46.4662 55.7742 47.6082C56.2473 48.7503 56.3711 50.0069 56.1299 51.2193C55.8888 52.4317 55.2935 53.5453 54.4194 54.4194C53.5453 55.2935 52.4317 55.8888 51.2193 56.1299C50.0069 56.3711 48.7503 56.2473 47.6082 55.7743C46.4662 55.3012 45.4901 54.5001 44.8033 53.4723C44.1166 52.4445 43.75 51.2361 43.75 50C43.75 48.3424 44.4085 46.7527 45.5806 45.5806C46.7527 44.4085 48.3424 43.75 50 43.75Z" fill="black"/>
<path d="M78.125 15.625H68.75V12.5C68.75 10.8424 68.0915 9.25268 66.9194 8.08058C65.7473 6.90848 64.1576 6.25 62.5 6.25H37.5C35.8424 6.25 34.2527 6.90848 33.0806 8.08058C31.9085 9.25268 31.25 10.8424 31.25 12.5V15.625H21.875C20.2174 15.625 18.6277 16.2835 17.4556 17.4556C16.2835 18.6277 15.625 20.2174 15.625 21.875V87.5C15.625 89.1576 16.2835 90.7473 17.4556 91.9194C18.6277 93.0915 20.2174 93.75 21.875 93.75H78.125C79.7826 93.75 81.3723 93.0915 82.5444 91.9194C83.7165 90.7473 84.375 89.1576 84.375 87.5V21.875C84.375 20.2174 83.7165 18.6277 82.5444 17.4556C81.3723 16.2835 79.7826 15.625 78.125 15.625ZM37.5 12.5H62.5V25H37.5V12.5ZM78.125 87.5H21.875V21.875H31.25V31.25H68.75V21.875H78.125V87.5Z" fill="black"/>
</svg>
