<svg width="100" height="100" viewBox="0 0 100 100" fill="none" xmlns="http://www.w3.org/2000/svg">
<path d="M79.1665 58.3332V24.9998C79.1665 20.4165 75.4165 16.6665 70.8332 16.6665H12.4998C7.9165 16.6665 4.1665 20.4165 4.1665 24.9998V58.3332C4.1665 62.9165 7.9165 66.6665 12.4998 66.6665H70.8332C75.4165 66.6665 79.1665 62.9165 79.1665 58.3332ZM70.8332 58.3332H12.4998V24.9998H70.8332V58.3332ZM41.6665 29.1665C34.7498 29.1665 29.1665 34.7498 29.1665 41.6665C29.1665 48.5832 34.7498 54.1665 41.6665 54.1665C48.5832 54.1665 54.1665 48.5832 54.1665 41.6665C54.1665 34.7498 48.5832 29.1665 41.6665 29.1665ZM95.8332 29.1665V74.9998C95.8332 79.5832 92.0832 83.3332 87.4998 83.3332H16.6665V74.9998H87.4998V29.1665H95.8332Z" fill="black"/>
</svg>
