<svg width="45" height="45" viewBox="0 0 45 45" fill="none" xmlns="http://www.w3.org/2000/svg">
<circle cx="22.5" cy="22.5" r="22.5" fill="#623A1E"/>
<path d="M35.3355 12.8918L31.5914 9.15117C31.1344 8.69414 30.5227 8.4375 29.8758 8.4375C29.2289 8.4375 28.6172 8.69063 28.1602 9.15117L24.1277 13.1766C23.6707 13.6336 23.4141 14.2488 23.4141 14.8957C23.4141 15.5461 23.6672 16.1543 24.1277 16.6148L27.2777 19.7684C26.5601 21.4403 25.5291 22.9595 24.2402 24.2437C22.95 25.541 21.4418 26.5641 19.7684 27.2883L16.6184 24.1348C16.1613 23.6777 15.5496 23.4211 14.9027 23.4211C14.5837 23.4199 14.2676 23.4824 13.973 23.605C13.6784 23.7275 13.4112 23.9076 13.1871 24.1348L9.15117 28.1602C8.69414 28.6172 8.4375 29.2324 8.4375 29.8793C8.4375 30.5297 8.69063 31.1379 9.15117 31.5984L12.8918 35.3391C13.6723 36.1195 14.748 36.566 15.852 36.566C16.0805 36.566 16.302 36.5484 16.527 36.5098C21.1816 35.7434 25.8012 33.2648 29.5312 29.5383C33.2578 25.8047 35.7328 21.1852 36.5062 16.527C36.7277 15.2051 36.2848 13.8445 35.3355 12.8918ZM34.0137 16.1086C33.3281 20.2535 31.0992 24.3879 27.7418 27.7453C24.3844 31.1027 20.2535 33.3316 16.1086 34.0172C15.5883 34.1051 15.0539 33.9293 14.6742 33.5531L11.0004 29.8793L14.8957 25.9805L19.1074 30.1992L19.1391 30.2309L19.8984 29.9496C22.2009 29.1031 24.2918 27.766 26.0261 26.031C27.7605 24.2961 29.0968 22.2047 29.9426 19.902L30.2238 19.1426L25.977 14.8992L29.8723 11.0004L33.5461 14.6742C33.9258 15.0539 34.1016 15.5883 34.0137 16.1086Z" fill="white"/>
</svg>
