<svg width="30" height="30" viewBox="0 0 30 30" fill="none" xmlns="http://www.w3.org/2000/svg">
<path d="M21.375 10.81C21.2463 10.9296 21.0778 10.9972 20.9021 10.9998C20.7263 11.0023 20.5559 10.9396 20.4238 10.8238C19.1443 9.74377 17.5244 9.15052 15.85 9.14876C14.4725 9.14876 13.0938 9.60251 13.0938 10.8663C13.0938 12.145 14.5713 12.5713 16.2763 13.21C19.2588 14.205 21.73 15.455 21.73 18.3813C21.73 21.5625 19.2588 23.75 15.225 23.9913L14.8563 25.6963C14.8235 25.853 14.7378 25.9936 14.6135 26.0944C14.4891 26.1953 14.3339 26.2502 14.1738 26.25H11.6313L11.5038 26.2363C11.3218 26.1955 11.1632 26.0849 11.0622 25.9282C10.9611 25.7715 10.9258 25.5813 10.9638 25.3988L11.3613 23.5938C9.83024 23.2101 8.4222 22.4426 7.27004 21.3638V21.35C7.20636 21.2867 7.15582 21.2114 7.12133 21.1285C7.08685 21.0456 7.06909 20.9567 7.06909 20.8669C7.06909 20.7771 7.08685 20.6882 7.12133 20.6053C7.15582 20.5223 7.20636 20.4471 7.27004 20.3838L8.69129 19.0063C8.95879 18.7563 9.37504 18.7563 9.64254 19.0063C10.9423 20.2341 12.6697 20.9068 14.4575 20.8813C16.305 20.8813 17.54 20.1 17.54 18.8638C17.54 17.6275 16.29 17.3013 13.9325 16.4213C11.4325 15.5263 9.06004 14.2613 9.06004 11.3075C9.06004 7.87001 11.915 6.19376 15.2963 6.03751L15.6513 4.29001C15.6842 4.13474 15.7702 3.99581 15.8946 3.89722C16.019 3.79864 16.1739 3.74657 16.3325 3.75001H18.8613L19.0038 3.76501C19.0915 3.78342 19.1747 3.81898 19.2486 3.86965C19.3225 3.92032 19.3856 3.98509 19.4344 4.06024C19.4832 4.1354 19.5167 4.21946 19.5328 4.30758C19.549 4.39571 19.5477 4.48617 19.5288 4.57376L19.145 6.52001C20.4343 6.94789 21.6299 7.61825 22.6675 8.49501L22.6963 8.52251C22.9663 8.80751 22.9663 9.23376 22.6963 9.48876L21.375 10.81Z" stroke="white" stroke-width="2" stroke-linecap="round" stroke-linejoin="round"/>
</svg>
