<svg width="84" height="84" viewBox="0 0 84 84" fill="none" xmlns="http://www.w3.org/2000/svg">
<circle cx="42" cy="42" r="42" fill="url(#paint0_linear_902_309)"/>
<path d="M35.75 35.75C36.0815 35.75 36.3995 35.8817 36.6339 36.1161C36.8683 36.3505 37 36.6685 37 37V52C37 52.3315 36.8683 52.6495 36.6339 52.8839C36.3995 53.1183 36.0815 53.25 35.75 53.25C35.4185 53.25 35.1005 53.1183 34.8661 52.8839C34.6317 52.6495 34.5 52.3315 34.5 52V37C34.5 36.6685 34.6317 36.3505 34.8661 36.1161C35.1005 35.8817 35.4185 35.75 35.75 35.75ZM42 35.75C42.3315 35.75 42.6495 35.8817 42.8839 36.1161C43.1183 36.3505 43.25 36.6685 43.25 37V52C43.25 52.3315 43.1183 52.6495 42.8839 52.8839C42.6495 53.1183 42.3315 53.25 42 53.25C41.6685 53.25 41.3505 53.1183 41.1161 52.8839C40.8817 52.6495 40.75 52.3315 40.75 52V37C40.75 36.6685 40.8817 36.3505 41.1161 36.1161C41.3505 35.8817 41.6685 35.75 42 35.75ZM49.5 37C49.5 36.6685 49.3683 36.3505 49.1339 36.1161C48.8995 35.8817 48.5815 35.75 48.25 35.75C47.9185 35.75 47.6005 35.8817 47.3661 36.1161C47.1317 36.3505 47 36.6685 47 37V52C47 52.3315 47.1317 52.6495 47.3661 52.8839C47.6005 53.1183 47.9185 53.25 48.25 53.25C48.5815 53.25 48.8995 53.1183 49.1339 52.8839C49.3683 52.6495 49.5 52.3315 49.5 52V37Z" fill="#020202"/>
<path fill-rule="evenodd" clip-rule="evenodd" d="M58.25 29.5C58.25 30.163 57.9866 30.7989 57.5178 31.2678C57.0489 31.7366 56.413 32 55.75 32H54.5V54.5C54.5 55.8261 53.9732 57.0979 53.0355 58.0355C52.0979 58.9732 50.8261 59.5 49.5 59.5H34.5C33.1739 59.5 31.9021 58.9732 30.9645 58.0355C30.0268 57.0979 29.5 55.8261 29.5 54.5V32H28.25C27.587 32 26.9511 31.7366 26.4822 31.2678C26.0134 30.7989 25.75 30.163 25.75 29.5V27C25.75 26.337 26.0134 25.7011 26.4822 25.2322C26.9511 24.7634 27.587 24.5 28.25 24.5H37C37 23.837 37.2634 23.2011 37.7322 22.7322C38.2011 22.2634 38.837 22 39.5 22H44.5C45.163 22 45.7989 22.2634 46.2678 22.7322C46.7366 23.2011 47 23.837 47 24.5H55.75C56.413 24.5 57.0489 24.7634 57.5178 25.2322C57.9866 25.7011 58.25 26.337 58.25 27V29.5ZM32.295 32L32 32.1475V54.5C32 55.163 32.2634 55.7989 32.7322 56.2678C33.2011 56.7366 33.837 57 34.5 57H49.5C50.163 57 50.7989 56.7366 51.2678 56.2678C51.7366 55.7989 52 55.163 52 54.5V32.1475L51.705 32H32.295ZM28.25 29.5V27H55.75V29.5H28.25Z" fill="#020202"/>
<defs>
<linearGradient id="paint0_linear_902_309" x1="74.55" y1="2.14197e-06" x2="42" y2="84" gradientUnits="userSpaceOnUse">
<stop stop-color="#F2F2F2"/>
<stop offset="1" stop-color="#F1F1F1"/>
</linearGradient>
</defs>
</svg>
